<svg width="24" height="24" viewBox="0 0 24 24" fill="none" xmlns="http://www.w3.org/2000/svg">
<path d="M10.9 22C9.68333 22 8.5375 21.7625 7.4625 21.2875C6.3875 20.8125 5.44583 20.1708 4.6375 19.3625C3.82917 18.5542 3.1875 17.6125 2.7125 16.5375C2.2375 15.4625 2 14.3167 2 13.1C2 10.6667 2.875 8.575 4.625 6.825C6.375 5.075 8.46667 4.2 10.9 4.2H11.95L10.4 2.65C10.0962 2.34624 10.0962 1.85376 10.4 1.55V1.55C10.7038 1.24624 11.1962 1.24624 11.5 1.55L14.7119 4.76191C14.8158 4.86579 14.8158 5.03421 14.7119 5.1381L11.5 8.35C11.1962 8.65376 10.7038 8.65376 10.4 8.35V8.35C10.0962 8.04624 10.0962 7.55376 10.4 7.25L11.95 5.7H10.9C8.86667 5.7 7.125 6.425 5.675 7.875C4.225 9.325 3.5 11.0667 3.5 13.1C3.5 15.1333 4.225 16.875 5.675 18.325C7.125 19.775 8.86667 20.5 10.9 20.5C11.8 20.5 12.6417 20.3833 13.425 20.15C13.9986 19.9792 14.5498 19.7234 15.0787 19.3828C15.4135 19.1672 15.8598 19.1948 16.1348 19.4829V19.4829C16.4416 19.8043 16.4168 20.3213 16.0486 20.57C15.4285 20.9889 14.7456 21.3114 14 21.5375C12.9833 21.8458 11.95 22 10.9 22ZM17.8036 18.1464C17.6083 18.3417 17.2917 18.3417 17.0964 18.1464L12.2536 13.3036C12.0583 13.1083 12.0583 12.7917 12.2536 12.5964L17.0964 7.75355C17.2917 7.55829 17.6083 7.55829 17.8036 7.75355L22.6464 12.5964C22.8417 12.7917 22.8417 13.1083 22.6464 13.3036L17.8036 18.1464ZM17.0964 16.0964C17.2917 16.2917 17.6083 16.2917 17.8036 16.0964L20.4964 13.4036C20.6917 13.2083 20.6917 12.8917 20.4964 12.6964L17.8036 10.0036C17.6083 9.80829 17.2917 9.80829 17.0964 10.0036L14.4036 12.6964C14.2083 12.8917 14.2083 13.2083 14.4036 13.4036L17.0964 16.0964Z" fill="white"/>
</svg>
