<svg width="72" height="54" viewBox="0 0 72 54" fill="none" xmlns="http://www.w3.org/2000/svg">
<path d="M15.5149 50.9444L15.5516 50.9323L15.5872 50.9175L58.5419 33.0004C63.3105 31.3971 67 26.2743 67 21.2407L67 11.844C67 6.4166 62.5841 2.00007 57.157 2.00007L14.843 2.00007C9.41594 2.00007 5.00001 6.41659 5.00001 11.844L5.00001 43.3505C5.00001 47.5871 7.69778 50.884 11.6102 51.3651L11.6102 51.4312L12.6102 51.4312C13.579 51.4312 14.5523 51.2612 15.5149 50.9444Z" fill="#131313" stroke="url(#paint0_linear_1861_30920)" stroke-width="2"/>
<path d="M44.2493 25.4193L44.2914 25.7057H44.002H42.5085H42.3014L42.2629 25.5022C41.9793 24.0033 41.2789 22.7699 40.1597 21.7926C39.0422 20.8169 37.7557 20.3317 36.29 20.3317C35.0723 20.3317 33.9725 20.6708 32.9837 21.3498C32.0989 21.9574 31.4095 22.73 30.9135 23.6703H35.0659H35.3159V23.9203V25.4557V25.7057H35.0659H28.4557H28.2057V25.4557V18.5463V18.2963H28.4557H29.9247H30.1747V18.5463V21.2725C30.8335 20.4649 31.6233 19.7989 32.5431 19.2758C33.692 18.6224 34.9508 18.2963 36.3145 18.2963C38.3031 18.2963 40.0516 18.9723 41.5494 20.318C43.047 21.6634 43.9473 23.3676 44.2493 25.4193Z" fill="white" stroke="white" stroke-width="0.5"/>
<defs>
<linearGradient id="paint0_linear_1861_30920" x1="36" y1="50.4312" x2="36" y2="3.00007" gradientUnits="userSpaceOnUse">
<stop stop-color="#595959"/>
<stop offset="1" stop-color="#6C6C6C"/>
</linearGradient>
</defs>
</svg>
