<svg width="72" height="54" viewBox="0 0 72 54" fill="none" xmlns="http://www.w3.org/2000/svg">
<path d="M56.4851 50.9444L56.4484 50.9323L56.4128 50.9175L13.4581 33.0004C8.68954 31.3971 5 26.2743 5 21.2407L5 11.844C5 6.4166 9.41593 2.00007 14.843 2.00007L57.157 2.00007C62.5841 2.00007 67 6.41659 67 11.844L67 43.3505C67 47.5871 64.3022 50.884 60.3898 51.3651L60.3898 51.4312L59.3898 51.4312C58.421 51.4312 57.4477 51.2612 56.4851 50.9444Z" fill="#131313" stroke="url(#paint0_linear_1863_31242)" stroke-width="2"/>
<path d="M27.7507 25.4193L27.7086 25.7057H27.998H29.4915H29.6986L29.7371 25.5022C30.0207 24.0033 30.7211 22.7699 31.8403 21.7926C32.9578 20.8169 34.2443 20.3317 35.71 20.3317C36.9277 20.3317 38.0275 20.6708 39.0163 21.3498C39.9011 21.9574 40.5905 22.73 41.0865 23.6703H36.9341H36.6841V23.9203V25.4557V25.7057H36.9341H43.5443H43.7943V25.4557V18.5463V18.2963H43.5443H42.0753H41.8253V18.5463V21.2725C41.1665 20.4649 40.3767 19.7989 39.4569 19.2758C38.308 18.6224 37.0492 18.2963 35.6855 18.2963C33.6969 18.2963 31.9484 18.9723 30.4506 20.318C28.953 21.6634 28.0527 23.3676 27.7507 25.4193Z" fill="white" stroke="white" stroke-width="0.5"/>
<defs>
<linearGradient id="paint0_linear_1863_31242" x1="36" y1="50.4312" x2="36" y2="3.00007" gradientUnits="userSpaceOnUse">
<stop stop-color="#595959"/>
<stop offset="1" stop-color="#6C6C6C"/>
</linearGradient>
</defs>
</svg>
