<svg width="72" height="54" viewBox="0 0 72 54" fill="none" xmlns="http://www.w3.org/2000/svg">
<path d="M15.5149 50.9444L15.5516 50.9323L15.5872 50.9175L58.5419 33.0004C63.3105 31.3971 67 26.2743 67 21.2407L67 11.844C67 6.4166 62.5841 2.00007 57.157 2.00007L14.843 2.00007C9.41594 2.00007 5.00001 6.41659 5.00001 11.844L5.00001 43.3505C5.00001 47.5871 7.69778 50.884 11.6102 51.3651L11.6102 51.4312L12.6102 51.4312C13.579 51.4312 14.5523 51.2612 15.5149 50.9444Z" fill="#131313" stroke="url(#paint0_linear_1863_31273)" stroke-width="2"/>
<g clip-path="url(#clip0_1863_31273)">
<path d="M38.0322 21.4463L32.8757 16.2893L27.7192 21.4463L30.2975 21.4463L30.2975 24.8843L35.454 24.8843L35.454 21.4463L38.0322 21.4463Z" fill="white" stroke="white" stroke-linecap="round" stroke-linejoin="round"/>
</g>
<defs>
<linearGradient id="paint0_linear_1863_31273" x1="36" y1="50.4312" x2="36" y2="3.00007" gradientUnits="userSpaceOnUse">
<stop stop-color="#595959"/>
<stop offset="1" stop-color="#6C6C6C"/>
</linearGradient>
<clipPath id="clip0_1863_31273">
<rect width="13.7507" height="13.7521" fill="white" transform="matrix(-1 0 0 1 39.751 15)"/>
</clipPath>
</defs>
</svg>
