<svg width="24" height="24" viewBox="0 0 24 24" fill="none" xmlns="http://www.w3.org/2000/svg">
<path d="M19.5 12H4.5M9 22H15C20 22 22 20 22 15V9C22 4 20 2 15 2H9C4 2 2 4 2 9V15C2 20 4 22 9 22Z" stroke="white" stroke-width="1.5" stroke-linecap="round" stroke-linejoin="round"/>
<path d="M17.6569 14.8284L20.4853 12L17.6569 9.17156M6.34315 9.17156L3.51472 12L6.34315 14.8284M12 3.51471V20.4853M12 3.51471L9.17157 6.34314M12 3.51471L14.8284 6.34314M12 20.4853L14.8284 17.6568M12 20.4853L9.17157 17.6568" stroke="white" stroke-width="1.5" stroke-linecap="round" stroke-linejoin="round"/>
</svg>
