<svg width="32" height="32" viewBox="0 0 32 32" fill="none" xmlns="http://www.w3.org/2000/svg">
<g id="vuesax/linear/camera">
<g id="camera">
<path id="Vector" d="M9.01323 29.3333H22.9866C26.6666 29.3333 28.1332 27.08 28.3066 24.3333L28.9999 13.32C29.1866 10.44 26.8932 7.99999 23.9999 7.99999C23.1866 7.99999 22.4399 7.53332 22.0666 6.81332L21.1066 4.87999C20.4932 3.66666 18.8932 2.66666 17.5332 2.66666H14.4799C13.1066 2.66666 11.5066 3.66666 10.8932 4.87999L9.93323 6.81332C9.5599 7.53332 8.81323 7.99999 7.9999 7.99999C5.10656 7.99999 2.81323 10.44 2.9999 13.32L3.69323 24.3333C3.85323 27.08 5.33323 29.3333 9.01323 29.3333Z" stroke="white" stroke-width="2.25" stroke-linecap="round" stroke-linejoin="round"/>
<path id="Vector_2" d="M14 10.6667H18" stroke="white" stroke-width="2.25" stroke-linecap="round" stroke-linejoin="round"/>
<path id="Vector_3" d="M16.0003 24C18.387 24 20.3337 22.0533 20.3337 19.6667C20.3337 17.28 18.387 15.3333 16.0003 15.3333C13.6137 15.3333 11.667 17.28 11.667 19.6667C11.667 22.0533 13.6137 24 16.0003 24Z" stroke="white" stroke-width="2.25" stroke-linecap="round" stroke-linejoin="round"/>
</g>
</g>
</svg>
