<svg width="33" height="32" viewBox="0 0 33 32" fill="none" xmlns="http://www.w3.org/2000/svg">
<g id="vuesax/linear/camera">
<g id="camera">
<path id="Vector" d="M9.51323 29.3333H23.4866C27.1666 29.3333 28.6332 27.08 28.8066 24.3333L29.4999 13.32C29.6866 10.44 27.3932 7.99999 24.4999 7.99999C23.6866 7.99999 22.9399 7.53332 22.5666 6.81332L21.6066 4.87999C20.9932 3.66666 19.3932 2.66666 18.0332 2.66666H14.9799C13.6066 2.66666 12.0066 3.66666 11.3932 4.87999L10.4332 6.81332C10.0599 7.53332 9.31323 7.99999 8.4999 7.99999C5.60656 7.99999 3.31323 10.44 3.4999 13.32L4.19323 24.3333C4.35323 27.08 5.83323 29.3333 9.51323 29.3333Z" stroke="#525252" stroke-width="2.25" stroke-linecap="round" stroke-linejoin="round"/>
<path id="Vector_2" d="M14.5 10.6667H18.5" stroke="#525252" stroke-width="2.25" stroke-linecap="round" stroke-linejoin="round"/>
<path id="Vector_3" d="M16.5003 24C18.887 24 20.8337 22.0533 20.8337 19.6667C20.8337 17.28 18.887 15.3333 16.5003 15.3333C14.1137 15.3333 12.167 17.28 12.167 19.6667C12.167 22.0533 14.1137 24 16.5003 24Z" stroke="#525252" stroke-width="2.25" stroke-linecap="round" stroke-linejoin="round"/>
</g>
</g>
</svg>
