<svg width="33" height="32" viewBox="0 0 33 32" fill="none" xmlns="http://www.w3.org/2000/svg">
<g id="vuesax/linear/gallery">
<g id="vuesax/linear/gallery_2">
<g id="gallery">
<path id="Vector" d="M12.5003 29.3333H20.5003C27.167 29.3333 29.8337 26.6667 29.8337 20V12C29.8337 5.33332 27.167 2.66666 20.5003 2.66666H12.5003C5.83366 2.66666 3.16699 5.33332 3.16699 12V20C3.16699 26.6667 5.83366 29.3333 12.5003 29.3333Z" stroke="#525252" stroke-width="2.25" stroke-linecap="round" stroke-linejoin="round"/>
<path id="Vector_2" d="M12.4997 13.3333C13.9724 13.3333 15.1663 12.1394 15.1663 10.6667C15.1663 9.19391 13.9724 8 12.4997 8C11.0269 8 9.83301 9.19391 9.83301 10.6667C9.83301 12.1394 11.0269 13.3333 12.4997 13.3333Z" stroke="#525252" stroke-width="2.25" stroke-linecap="round" stroke-linejoin="round"/>
<path id="Vector_3" d="M4.06055 25.2667L10.6339 20.8534C11.6872 20.1467 13.2072 20.2267 14.1539 21.0401L14.5939 21.4267C15.6339 22.3201 17.3139 22.3201 18.3539 21.4267L23.9005 16.6667C24.9405 15.7734 26.6205 15.7734 27.6605 16.6667L29.8339 18.5334" stroke="#525252" stroke-width="2.25" stroke-linecap="round" stroke-linejoin="round"/>
</g>
</g>
</g>
</svg>
