<svg width="32" height="32" viewBox="0 0 32 32" fill="none" xmlns="http://www.w3.org/2000/svg">
<g id="vuesax/linear/gallery">
<g id="vuesax/linear/gallery_2">
<g id="gallery">
<path id="Vector" d="M12.0003 29.3333H20.0003C26.667 29.3333 29.3337 26.6667 29.3337 20V12C29.3337 5.33332 26.667 2.66666 20.0003 2.66666H12.0003C5.33366 2.66666 2.66699 5.33332 2.66699 12V20C2.66699 26.6667 5.33366 29.3333 12.0003 29.3333Z" stroke="white" stroke-width="2.25" stroke-linecap="round" stroke-linejoin="round"/>
<path id="Vector_2" d="M11.9997 13.3333C13.4724 13.3333 14.6663 12.1394 14.6663 10.6667C14.6663 9.19391 13.4724 8 11.9997 8C10.5269 8 9.33301 9.19391 9.33301 10.6667C9.33301 12.1394 10.5269 13.3333 11.9997 13.3333Z" stroke="white" stroke-width="2.25" stroke-linecap="round" stroke-linejoin="round"/>
<path id="Vector_3" d="M3.56055 25.2667L10.1339 20.8534C11.1872 20.1467 12.7072 20.2267 13.6539 21.0401L14.0939 21.4267C15.1339 22.3201 16.8139 22.3201 17.8539 21.4267L23.4005 16.6667C24.4405 15.7734 26.1205 15.7734 27.1605 16.6667L29.3339 18.5334" stroke="white" stroke-width="2.25" stroke-linecap="round" stroke-linejoin="round"/>
</g>
</g>
</g>
</svg>
