<svg width="24" height="24" viewBox="0 0 24 24" fill="none" xmlns="http://www.w3.org/2000/svg">
<path d="M9.69133 20.4611H3.53749C3.12946 20.4611 2.73815 20.299 2.44963 20.0105C2.16111 19.722 1.99902 19.3307 1.99902 18.9227V3.53843C1.99902 3.13041 2.16111 2.73911 2.44963 2.4506C2.73815 2.16208 3.12946 2 3.53749 2H20.4606C20.8686 2 21.2599 2.16208 21.5484 2.4506C21.8369 2.73911 21.999 3.13041 21.999 3.53843V11.2306" stroke="black" stroke-width="2" stroke-linecap="round" stroke-linejoin="round"/>
<path d="M1.99902 6.61523H21.999" stroke="black" stroke-width="2" stroke-linecap="round" stroke-linejoin="round"/>
<path d="M15.8452 19.6917C17.9693 19.6917 19.6913 17.9697 19.6913 15.8456C19.6913 13.7215 17.9693 11.9995 15.8452 11.9995C13.721 11.9995 11.999 13.7215 11.999 15.8456C11.999 17.9697 13.721 19.6917 15.8452 19.6917Z" stroke="black" stroke-width="2" stroke-linecap="round" stroke-linejoin="round"/>
<path d="M18.5674 18.5688L21.9982 21.9995" stroke="black" stroke-width="2" stroke-linecap="round" stroke-linejoin="round"/>
</svg>
