<svg width="24" height="24" viewBox="0 0 24 24" fill="none" xmlns="http://www.w3.org/2000/svg">
<path d="M16.9556 2H7.04444C4.25848 2 2 4.25848 2 7.04444V16.9556C2 19.7416 4.25848 22 7.04444 22H16.9556C19.7416 22 22 19.7416 22 16.9556V7.04444C22 4.25848 19.7416 2 16.9556 2Z" stroke="white" stroke-width="2" stroke-linecap="round" stroke-linejoin="round"/>
<path d="M8.74609 7.64647V16.3513C8.74652 16.5298 8.79687 16.7046 8.89145 16.856C8.98603 17.0073 9.12106 17.1292 9.28129 17.2078C9.44151 17.2864 9.62054 17.3186 9.79812 17.3008C9.9757 17.283 10.1448 17.2159 10.2862 17.107L16.3126 12.4198C16.432 12.3267 16.5275 12.2065 16.5914 12.0693C16.6552 11.932 16.6856 11.7816 16.68 11.6303C16.6744 11.479 16.633 11.3312 16.5591 11.1991C16.4853 11.0669 16.3811 10.9542 16.2552 10.8701L10.2288 6.85251C10.0849 6.75776 9.91814 6.70362 9.74605 6.69581C9.57396 6.688 9.40296 6.7268 9.25109 6.80812C9.09923 6.88944 8.97215 7.01026 8.88326 7.15782C8.79437 7.30538 8.74698 7.47421 8.74609 7.64647Z" fill="white"/>
</svg>
