<svg width="24" height="24" viewBox="0 0 24 24" fill="none" xmlns="http://www.w3.org/2000/svg">
<path d="M20.4606 7H3.53749C2.68782 7 1.99902 7.68878 1.99902 8.53844V19.3075C1.99902 20.1572 2.68782 20.8459 3.53749 20.8459H20.4606C21.3102 20.8459 21.999 20.1572 21.999 19.3075V8.53844C21.999 7.68878 21.3102 7 20.4606 7Z" stroke="white" stroke-width="2" stroke-linecap="round" stroke-linejoin="round"/>
<path d="M11.9988 16.9999C13.6981 16.9999 15.0757 15.6224 15.0757 13.9231C15.0757 12.2238 13.6981 10.8462 11.9988 10.8462C10.2995 10.8462 8.92188 12.2238 8.92188 13.9231C8.92188 15.6224 10.2995 16.9999 11.9988 16.9999Z" stroke="white" stroke-width="2" stroke-linecap="round" stroke-linejoin="round"/>
<path d="M15.8456 6.9999V4.69225C15.8456 4.28423 15.6835 3.89292 15.395 3.60441C15.1065 3.31589 14.7152 3.15381 14.3072 3.15381H9.69178C9.28376 3.15381 8.89244 3.31589 8.60393 3.60441C8.31541 3.89292 8.15332 4.28423 8.15332 4.69225V6.9999" stroke="white" stroke-width="2" stroke-linecap="round" stroke-linejoin="round"/>
</svg>
