<svg width="18" height="18" viewBox="0 0 18 18" fill="none" xmlns="http://www.w3.org/2000/svg">
<g id="vuesax/linear/video-octagon">
<g id="video-octagon">
<path id="Vector" d="M15.8101 6.43503V11.565C15.8101 12.405 15.3601 13.185 14.6326 13.6125L10.1776 16.185C9.45012 16.605 8.55012 16.605 7.81512 16.185L3.36012 13.6125C2.63262 13.1925 2.18262 12.4125 2.18262 11.565V6.43503C2.18262 5.59503 2.63262 4.81499 3.36012 4.38749L7.81512 1.815C8.54262 1.395 9.44262 1.395 10.1776 1.815L14.6326 4.38749C15.3601 4.81499 15.8101 5.58753 15.8101 6.43503Z" stroke="white" stroke-width="1.5" stroke-linecap="round" stroke-linejoin="round"/>
<path id="Vector_2" d="M7.3125 9.00002V8.10001C7.3125 6.94501 8.13001 6.47254 9.12751 7.05004L9.90749 7.50002L10.6875 7.95C11.685 8.5275 11.685 9.47254 10.6875 10.05L9.90749 10.5L9.12751 10.95C8.13001 11.5275 7.3125 11.055 7.3125 9.90003V9.00002Z" stroke="white" stroke-width="1.5" stroke-miterlimit="10" stroke-linecap="round" stroke-linejoin="round"/>
</g>
</g>
</svg>
