<svg width="18" height="18" viewBox="0 0 18 18" fill="none" xmlns="http://www.w3.org/2000/svg">
<g id="vuesax/linear/video">
<g id="video">
<path id="Vector" d="M9.39701 15.315H4.65701C2.28701 15.315 1.49951 13.74 1.49951 12.1575V5.8425C1.49951 3.4725 2.28701 2.685 4.65701 2.685H9.39701C11.767 2.685 12.5545 3.4725 12.5545 5.8425V12.1575C12.5545 14.5275 11.7595 15.315 9.39701 15.315Z" stroke="white" stroke-width="1.5" stroke-linecap="round" stroke-linejoin="round"/>
<path id="Vector_2" d="M14.6402 12.825L12.5552 11.3625V6.63001L14.6402 5.16751C15.6602 4.45501 16.5002 4.89001 16.5002 6.14251V11.8575C16.5002 13.11 15.6602 13.545 14.6402 12.825Z" stroke="white" stroke-width="1.5" stroke-linecap="round" stroke-linejoin="round"/>
<path id="Vector_3" d="M8.62549 8.25C9.24681 8.25 9.75049 7.74632 9.75049 7.125C9.75049 6.50368 9.24681 6 8.62549 6C8.00417 6 7.50049 6.50368 7.50049 7.125C7.50049 7.74632 8.00417 8.25 8.62549 8.25Z" stroke="white" stroke-width="1.5" stroke-linecap="round" stroke-linejoin="round"/>
</g>
</g>
</svg>
