<svg width="75" height="30" viewBox="0 0 75 30" fill="none" xmlns="http://www.w3.org/2000/svg">
<path d="M13.9508 0.589142C14.6024 0.22325 15.3976 0.22325 16.0492 0.589142L21.54 3.67239L26.9556 6.88596C27.5983 7.26731 27.9958 7.95594 28.0048 8.70319L28.08 15L28.0048 21.2968C27.9958 22.0441 27.5983 22.7327 26.9556 23.114L21.54 26.3276L16.0492 29.4109C15.3976 29.7767 14.6024 29.7767 13.9508 29.4109L8.46 26.3276L3.04442 23.114C2.40175 22.7327 2.00417 22.0441 1.99524 21.2968L1.92 15L1.99524 8.70319C2.00417 7.95594 2.40175 7.26731 3.04442 6.88596L8.46 3.67239L13.9508 0.589142Z" fill="#B50039"/>
<path d="M21.5244 11.4612C21.5244 13.5815 20.7827 15.046 19.299 15.8555C19.346 15.6726 19.3708 15.4809 19.3708 15.2833C19.3708 14.2014 18.6189 13.2914 17.6022 13.038C17.8882 12.6645 18.0313 12.143 18.0313 11.4719C18.0313 10.6549 17.8119 10.0943 17.3723 9.79068C16.933 9.48708 16.1642 9.33497 15.0657 9.33497H12.4954V13.432L10.3127 13.6571L10.2944 13.6604C9.73174 13.7668 9.28069 14.1446 9.06836 14.6415V6.42859H14.8899C17.2772 6.42859 18.9795 6.82612 19.9975 7.62134C21.0154 8.41688 21.5244 9.69658 21.5244 11.4609V11.4612ZM18.9336 16.6298L22.4909 21.591H18.273L15.3419 17.4274L17.0034 17.5986H17.0262C17.8119 17.5986 18.5078 17.216 18.9335 16.6298H18.9336ZM10.1322 8.2236C10.1322 8.56359 10.4117 8.83937 10.756 8.83937C11.1004 8.83937 11.38 8.56343 11.38 8.2236C11.38 7.88377 11.1007 7.60704 10.756 7.60704C10.4114 7.60704 10.1322 7.88297 10.1322 8.2236Z" fill="white"/>
<rect x="9.81641" y="7.17419" width="1.73995" height="1.73995" fill="white"/>
<path fill-rule="evenodd" clip-rule="evenodd" d="M10.5647 14.849C10.8267 14.849 11.0393 15.0617 11.0393 15.3242C11.0393 15.5866 10.8267 15.7992 10.5647 15.7992C10.3027 15.7992 10.0899 15.5866 10.0899 15.3242C10.0899 15.0617 10.3025 14.849 10.5647 14.849ZM17.0784 14.1676C17.7166 14.1676 18.2343 14.6858 18.2343 15.3242C18.2343 15.9626 17.7167 16.4806 17.0784 16.4806C16.4401 16.4806 15.9228 15.9627 15.9228 15.3242C15.9228 14.6856 16.4401 14.1676 17.0784 14.1676ZM10.3276 16.555C9.74902 16.4441 9.31152 15.9348 9.31152 15.324C9.31152 14.7132 9.74902 14.2037 10.3277 14.0928H10.3276L17.0784 13.3884C18.1462 13.3884 19.0127 14.2554 19.0127 15.3238C19.0127 16.3923 18.1462 17.2593 17.0784 17.2593L10.3276 16.5548V16.555Z" fill="white"/>
<path fill-rule="evenodd" clip-rule="evenodd" d="M12.0199 18.7462V17.1406L10.2677 16.9977L10.244 16.9932C9.92201 16.9314 9.59809 16.7605 9.36521 16.5275V18.7462H9.0127C8.77066 18.7462 8.57324 18.9434 8.57324 19.1856C8.57324 19.4278 8.77066 19.6248 9.0127 19.6248H12.3731C12.6155 19.6248 12.8116 19.4271 12.8116 19.1856C12.8116 18.9441 12.6155 18.7462 12.3731 18.7462H12.0199Z" fill="white"/>
<path fill-rule="evenodd" clip-rule="evenodd" d="M12.0211 20.3497H11.1074V23.3803L12.0211 22.2859V20.3497Z" fill="white"/>
<path fill-rule="evenodd" clip-rule="evenodd" d="M10.2817 23.3803V20.3497H9.36621V22.2859L10.2817 23.3803Z" fill="white"/>
<path d="M39.417 7.99221V23.1429H35.441V7.99221H39.417ZM41.4678 23.1429V7.99221H47.9131C51.3032 7.99221 53.5213 9.91744 53.5213 13.1192C53.5213 15.2118 52.5587 16.6871 50.9265 17.4614L54.0236 23.1429H49.6918L47.0028 18.0996H45.4438V23.1429H41.4678ZM45.4438 14.9816H46.9923C48.4886 14.9816 49.3675 14.4375 49.357 13.1192C49.3675 11.7799 48.4886 11.1835 46.9923 11.173H45.4438V14.9816ZM59.297 7.99221V23.1429H55.321V7.99221H59.297ZM69.5091 12.6797C69.4254 11.6648 68.7557 11.0579 67.3955 11.0684C66.0876 11.0579 65.4807 11.5811 65.4703 12.2821C65.4389 13.0669 66.1504 13.4958 67.5629 13.7888L68.8185 14.0818C72.0725 14.7723 73.5269 16.3523 73.5479 18.6856C73.5269 21.6571 71.246 23.3208 67.4164 23.3312C63.5032 23.3208 60.9607 21.6257 60.9293 17.8904H64.7379C64.8006 19.3029 65.7737 20.0458 67.3537 20.0458C68.7243 20.0458 69.4568 19.4912 69.4672 18.6856C69.4568 17.9532 68.829 17.5242 67.1444 17.158L65.6168 16.8231C62.9487 16.2372 61.3164 14.9188 61.3269 12.5751C61.3059 9.70817 63.838 7.78295 67.3955 7.78295C71.0262 7.78295 73.3177 9.73956 73.3386 12.6797H69.5091Z" fill="#B50039"/>
</svg>
