<svg width="1136" height="56" viewBox="0 0 1136 56" fill="none" xmlns="http://www.w3.org/2000/svg">
<rect width="1136" height="32" rx="16" fill="#D9D9D9"/>
<rect width="1136" height="32" rx="16" fill="#B50039"/>
<path d="M15.9538 51.152H11.8258L10.7218 54H8.51381L12.9618 43.248H14.8178L19.2658 54H17.0578L15.9538 51.152ZM14.5458 47.456L13.9058 45.696H13.8738L13.2338 47.456L12.4818 49.472H15.2978L14.5458 47.456ZM25.3074 53.36C24.9981 53.6053 24.6408 53.8027 24.2354 53.952C23.8408 54.1013 23.4034 54.176 22.9234 54.176C21.1634 54.176 20.2834 53.2587 20.2834 51.424V46.256H22.3634V51.056C22.3634 51.6 22.4434 51.9787 22.6034 52.192C22.7741 52.4053 23.0461 52.512 23.4194 52.512C23.7288 52.512 24.0114 52.4747 24.2674 52.4C24.5341 52.3147 24.8061 52.1973 25.0834 52.048V46.256H27.1634V54H25.6114L25.3074 53.36ZM31.5683 47.92V51.168C31.5683 51.68 31.6483 52.032 31.8083 52.224C31.9683 52.4053 32.235 52.496 32.6083 52.496C32.875 52.496 33.1416 52.4533 33.4083 52.368C33.675 52.272 33.931 52.1653 34.1763 52.048L34.5443 53.568C34.171 53.76 33.7656 53.904 33.3283 54C32.9016 54.1067 32.4803 54.16 32.0643 54.16C31.1256 54.16 30.459 53.9413 30.0643 53.504C29.6803 53.0667 29.4883 52.3787 29.4883 51.44V47.92H28.2403V46.256H29.4883V44.768L31.5683 44.4V46.256H34.2723V47.92H31.5683ZM35.2041 50.128C35.2041 48.72 35.5134 47.696 36.1321 47.056C36.7507 46.416 37.7161 46.096 39.0281 46.096C40.3187 46.096 41.2734 46.4213 41.8921 47.072C42.5214 47.7227 42.8361 48.7413 42.8361 50.128C42.8361 51.5147 42.5214 52.5333 41.8921 53.184C41.2734 53.8347 40.3187 54.16 39.0281 54.16C37.7161 54.16 36.7507 53.84 36.1321 53.2C35.5134 52.56 35.2041 51.536 35.2041 50.128ZM37.2841 50.128C37.2841 50.896 37.4121 51.4827 37.6681 51.888C37.9241 52.2933 38.3774 52.496 39.0281 52.496C39.6787 52.496 40.1267 52.2933 40.3721 51.888C40.6281 51.4827 40.7561 50.896 40.7561 50.128C40.7561 49.36 40.6281 48.7733 40.3721 48.368C40.1267 47.9627 39.6787 47.76 39.0281 47.76C38.3774 47.76 37.9241 47.9627 37.6681 48.368C37.4121 48.7733 37.2841 49.36 37.2841 50.128ZM53.6187 52.448C54.1414 52.448 54.6587 52.3787 55.1707 52.24C55.6827 52.0907 56.1787 51.888 56.6587 51.632L57.1867 53.296C56.6747 53.5733 56.1094 53.7867 55.4907 53.936C54.872 54.0853 54.2427 54.16 53.6027 54.16C51.8 54.16 50.4667 53.68 49.6027 52.72C48.7494 51.76 48.3227 50.3947 48.3227 48.624C48.3227 46.7253 48.744 45.328 49.5867 44.432C50.4294 43.536 51.688 43.088 53.3627 43.088C54.1627 43.088 54.888 43.2267 55.5387 43.504C56.2 43.7813 56.7334 44.144 57.1387 44.592L55.9707 45.904C55.6507 45.552 55.272 45.28 54.8347 45.088C54.408 44.896 53.9174 44.8 53.3627 44.8C52.392 44.8 51.6614 45.1093 51.1707 45.728C50.68 46.336 50.4347 47.3013 50.4347 48.624C50.4347 49.8827 50.6907 50.8373 51.2027 51.488C51.7147 52.128 52.52 52.448 53.6187 52.448ZM64.8862 54H63.3342L63.0622 53.408C62.7849 53.6427 62.4595 53.8293 62.0862 53.968C61.7129 54.096 61.3022 54.16 60.8542 54.16C59.9475 54.16 59.2755 53.9467 58.8382 53.52C58.4009 53.0827 58.1822 52.448 58.1822 51.616C58.1822 50.784 58.4542 50.1653 58.9982 49.76C59.5422 49.3547 60.4329 49.152 61.6702 49.152C61.8195 49.152 61.9902 49.1573 62.1822 49.168C62.3742 49.168 62.5822 49.1787 62.8062 49.2V49.072C62.8062 48.592 62.6995 48.2507 62.4862 48.048C62.2835 47.8347 61.9102 47.728 61.3662 47.728C61.0249 47.728 60.6515 47.7813 60.2462 47.888C59.8515 47.984 59.4515 48.1387 59.0462 48.352L58.4542 46.896C58.9342 46.6507 59.4249 46.4587 59.9262 46.32C60.4382 46.1707 60.9822 46.096 61.5582 46.096C62.1769 46.096 62.6995 46.1493 63.1262 46.256C63.5529 46.3627 63.8942 46.544 64.1502 46.8C64.4169 47.056 64.6035 47.392 64.7102 47.808C64.8275 48.224 64.8862 48.7413 64.8862 49.36V54ZM61.3022 52.528C61.5262 52.528 61.7769 52.4747 62.0542 52.368C62.3422 52.2613 62.5929 52.1333 62.8062 51.984V50.752C62.6355 50.7307 62.4542 50.7147 62.2622 50.704C62.0702 50.6933 61.8515 50.688 61.6062 50.688C61.0942 50.688 60.7422 50.7573 60.5502 50.896C60.3582 51.024 60.2622 51.248 60.2622 51.568C60.2622 52.208 60.6089 52.528 61.3022 52.528ZM68.7609 42.704V51.696C68.7609 52.0053 68.8143 52.208 68.9209 52.304C69.0276 52.3893 69.2356 52.432 69.5449 52.432V54.112C69.4276 54.1333 69.3263 54.144 69.2409 54.144C69.1556 54.1547 69.0383 54.16 68.8889 54.16C68.1529 54.16 67.5983 53.968 67.2249 53.584C66.8623 53.1893 66.6809 52.56 66.6809 51.696V42.928L68.7609 42.704ZM70.8563 46.256H72.9363V54H70.8563V46.256ZM70.8563 42.928H72.9363V44.784H70.8563V42.928ZM78.2957 52.528C78.8397 52.528 79.2504 52.3467 79.5277 51.984C79.805 51.6213 79.9437 51.0027 79.9437 50.128C79.9437 49.264 79.7997 48.6507 79.5117 48.288C79.2344 47.9147 78.8237 47.728 78.2797 47.728C77.7784 47.728 77.325 47.8827 76.9197 48.192V52.08C77.3144 52.3787 77.773 52.528 78.2957 52.528ZM76.4237 54H74.8397V42.928L76.9197 42.704V46.736C77.133 46.5547 77.4157 46.4053 77.7677 46.288C78.1197 46.16 78.509 46.096 78.9357 46.096C79.8744 46.096 80.621 46.4213 81.1757 47.072C81.741 47.7227 82.0237 48.7413 82.0237 50.128C82.0237 51.5147 81.7144 52.5333 81.0957 53.184C80.4877 53.8347 79.6344 54.16 78.5357 54.16C77.7784 54.16 77.1544 53.9307 76.6637 53.472L76.4237 54ZM85.0209 46.256L85.2129 47.072C85.5116 46.7627 85.8423 46.5227 86.2049 46.352C86.5783 46.1813 86.9783 46.096 87.4049 46.096C87.6183 46.096 87.8263 46.1173 88.0289 46.16C88.2316 46.2027 88.4396 46.2773 88.6529 46.384V48.112C88.4503 48.0053 88.2423 47.92 88.0289 47.856C87.8263 47.792 87.5969 47.76 87.3409 47.76C86.9783 47.76 86.6369 47.8347 86.3169 47.984C86.0076 48.1333 85.7356 48.3147 85.5009 48.528V54H83.4209V46.256H85.0209ZM95.7456 54H94.1936L93.9216 53.408C93.6442 53.6427 93.3189 53.8293 92.9456 53.968C92.5722 54.096 92.1616 54.16 91.7136 54.16C90.8069 54.16 90.1349 53.9467 89.6976 53.52C89.2602 53.0827 89.0416 52.448 89.0416 51.616C89.0416 50.784 89.3136 50.1653 89.8576 49.76C90.4016 49.3547 91.2922 49.152 92.5296 49.152C92.6789 49.152 92.8496 49.1573 93.0416 49.168C93.2336 49.168 93.4416 49.1787 93.6656 49.2V49.072C93.6656 48.592 93.5589 48.2507 93.3456 48.048C93.1429 47.8347 92.7696 47.728 92.2256 47.728C91.8842 47.728 91.5109 47.7813 91.1056 47.888C90.7109 47.984 90.3109 48.1387 89.9056 48.352L89.3136 46.896C89.7936 46.6507 90.2842 46.4587 90.7856 46.32C91.2976 46.1707 91.8416 46.096 92.4176 46.096C93.0362 46.096 93.5589 46.1493 93.9856 46.256C94.4122 46.3627 94.7536 46.544 95.0096 46.8C95.2762 47.056 95.4629 47.392 95.5696 47.808C95.6869 48.224 95.7456 48.7413 95.7456 49.36V54ZM92.1616 52.528C92.3856 52.528 92.6362 52.4747 92.9136 52.368C93.2016 52.2613 93.4522 52.1333 93.6656 51.984V50.752C93.4949 50.7307 93.3136 50.7147 93.1216 50.704C92.9296 50.6933 92.7109 50.688 92.4656 50.688C91.9536 50.688 91.6016 50.7573 91.4096 50.896C91.2176 51.024 91.1216 51.248 91.1216 51.568C91.1216 52.208 91.4682 52.528 92.1616 52.528ZM100.068 47.92V51.168C100.068 51.68 100.148 52.032 100.308 52.224C100.468 52.4053 100.735 52.496 101.108 52.496C101.375 52.496 101.642 52.4533 101.908 52.368C102.175 52.272 102.431 52.1653 102.676 52.048L103.044 53.568C102.671 53.76 102.266 53.904 101.828 54C101.402 54.1067 100.98 54.16 100.564 54.16C99.6256 54.16 98.959 53.9413 98.5643 53.504C98.1803 53.0667 97.9883 52.3787 97.9883 51.44V47.92H96.7403V46.256H97.9883V44.768L100.068 44.4V46.256H102.772V47.92H100.068ZM104.294 46.256H106.374V54H104.294V46.256ZM104.294 42.928H106.374V44.784H104.294V42.928ZM107.957 50.128C107.957 48.72 108.267 47.696 108.885 47.056C109.504 46.416 110.469 46.096 111.781 46.096C113.072 46.096 114.027 46.4213 114.645 47.072C115.275 47.7227 115.589 48.7413 115.589 50.128C115.589 51.5147 115.275 52.5333 114.645 53.184C114.027 53.8347 113.072 54.16 111.781 54.16C110.469 54.16 109.504 53.84 108.885 53.2C108.267 52.56 107.957 51.536 107.957 50.128ZM110.037 50.128C110.037 50.896 110.165 51.4827 110.421 51.888C110.677 52.2933 111.131 52.496 111.781 52.496C112.432 52.496 112.88 52.2933 113.125 51.888C113.381 51.4827 113.509 50.896 113.509 50.128C113.509 49.36 113.381 48.7733 113.125 48.368C112.88 47.9627 112.432 47.76 111.781 47.76C111.131 47.76 110.677 47.9627 110.421 48.368C110.165 48.7733 110.037 49.36 110.037 50.128ZM118.839 46.896C119.149 46.6507 119.501 46.4533 119.895 46.304C120.301 46.1547 120.743 46.08 121.223 46.08C122.983 46.08 123.863 46.9973 123.863 48.832V54H121.783V49.2C121.783 48.656 121.698 48.2773 121.527 48.064C121.367 47.8507 121.101 47.744 120.727 47.744C120.418 47.744 120.13 47.7867 119.863 47.872C119.607 47.9467 119.341 48.0587 119.063 48.208V54H116.983V46.256H118.535L118.839 46.896Z" fill="#191F28"/>
<path d="M378.574 44.272V45.888C378.574 46.6453 378.862 47.4453 379.438 48.288C380.014 49.1413 380.825 49.888 381.87 50.528L380.606 51.92C380.286 51.728 379.977 51.5093 379.678 51.264C379.39 51.0187 379.113 50.7627 378.846 50.496C378.59 50.2187 378.35 49.936 378.126 49.648C377.913 49.3493 377.726 49.056 377.566 48.768C377.214 49.376 376.761 49.968 376.206 50.544C375.652 51.1093 375.038 51.616 374.366 52.064L373.118 50.688C373.641 50.3253 374.116 49.9467 374.542 49.552C374.969 49.1467 375.326 48.7413 375.614 48.336C375.913 47.92 376.142 47.504 376.302 47.088C376.462 46.672 376.542 46.272 376.542 45.888V44.272H373.998V42.624H380.958V44.272H378.574ZM382.238 41.808H384.238V46.336H386.078V48H384.238V55.568H382.238V41.808ZM397.065 46.976H393.593V48.128H398.729V49.728H386.521V48.128H391.625V46.976H389.625C389.156 46.976 388.83 46.896 388.649 46.736C388.468 46.576 388.377 46.24 388.377 45.728V42.08H396.953V43.728H390.377V45.04C390.377 45.1573 390.393 45.2373 390.425 45.28C390.468 45.312 390.548 45.328 390.665 45.328H397.065V46.976ZM392.633 55.792C391.801 55.792 391.097 55.728 390.521 55.6C389.956 55.4827 389.497 55.3067 389.145 55.072C388.793 54.8373 388.537 54.5547 388.377 54.224C388.228 53.904 388.153 53.536 388.153 53.12C388.153 52.7147 388.228 52.3467 388.377 52.016C388.537 51.6853 388.793 51.4027 389.145 51.168C389.497 50.9333 389.956 50.752 390.521 50.624C391.097 50.496 391.801 50.432 392.633 50.432C393.465 50.432 394.164 50.496 394.729 50.624C395.294 50.752 395.753 50.9333 396.105 51.168C396.446 51.4027 396.692 51.6853 396.841 52.016C397.001 52.3467 397.081 52.7147 397.081 53.12C397.081 53.536 397.001 53.904 396.841 54.224C396.692 54.5547 396.446 54.8373 396.105 55.072C395.753 55.3067 395.294 55.4827 394.729 55.6C394.164 55.728 393.465 55.792 392.633 55.792ZM392.633 54.192C393.55 54.192 394.185 54.1013 394.537 53.92C394.889 53.7387 395.065 53.472 395.065 53.12C395.065 52.9493 395.022 52.7947 394.937 52.656C394.862 52.5173 394.729 52.4 394.537 52.304C394.345 52.208 394.094 52.1387 393.785 52.096C393.476 52.0427 393.092 52.016 392.633 52.016C391.705 52.016 391.06 52.1173 390.697 52.32C390.345 52.512 390.169 52.7787 390.169 53.12C390.169 53.472 390.345 53.7387 390.697 53.92C391.06 54.1013 391.705 54.192 392.633 54.192ZM404.112 45.664C404.112 45.1733 404.171 44.7147 404.288 44.288C404.416 43.8507 404.624 43.472 404.912 43.152C405.19 42.832 405.552 42.5813 406 42.4C406.459 42.208 407.014 42.112 407.664 42.112C408.304 42.112 408.848 42.208 409.296 42.4C409.744 42.5813 410.107 42.832 410.384 43.152C410.662 43.472 410.864 43.8507 410.992 44.288C411.12 44.7147 411.184 45.1733 411.184 45.664C411.184 46.176 411.12 46.6453 410.992 47.072C410.864 47.4987 410.662 47.872 410.384 48.192C410.107 48.512 409.744 48.7627 409.296 48.944C408.848 49.1253 408.304 49.216 407.664 49.216C407.014 49.216 406.459 49.1253 406 48.944C405.552 48.7627 405.19 48.512 404.912 48.192C404.624 47.872 404.416 47.4987 404.288 47.072C404.171 46.6453 404.112 46.176 404.112 45.664ZM409.264 45.664C409.264 45.0133 409.126 44.5387 408.848 44.24C408.571 43.9307 408.176 43.776 407.664 43.776C407.152 43.776 406.752 43.9307 406.464 44.24C406.187 44.5387 406.048 45.0133 406.048 45.664C406.048 46.336 406.187 46.8213 406.464 47.12C406.752 47.408 407.152 47.552 407.664 47.552C408.176 47.552 408.571 47.408 408.848 47.12C409.126 46.8213 409.264 46.336 409.264 45.664ZM413.008 41.808H415.024V51.6H413.008V41.808ZM415.232 55.504H407.712C407.243 55.504 406.918 55.424 406.736 55.264C406.555 55.104 406.464 54.768 406.464 54.256V50.816H408.464V53.568C408.464 53.6853 408.48 53.7653 408.512 53.808C408.555 53.84 408.635 53.856 408.752 53.856H415.232V55.504ZM422.043 42.112V44.064C422.043 44.7467 422.294 45.4293 422.795 46.112C423.307 46.784 424.091 47.376 425.147 47.888L424.139 49.28C423.499 48.992 422.907 48.6187 422.363 48.16C421.819 47.6907 421.387 47.2107 421.067 46.72C420.736 47.264 420.294 47.7813 419.739 48.272C419.195 48.752 418.571 49.1733 417.867 49.536L416.859 48.144C417.883 47.568 418.667 46.9227 419.211 46.208C419.755 45.4827 420.027 44.768 420.027 44.064V42.112H422.043ZM426.027 41.808H428.043V49.632H426.027V41.808ZM428.043 55.712H426.043V52.016H419.307V50.368H428.043V55.712Z" fill="#191F28"/>
<path d="M687.962 47.264C687.962 46.6773 688.122 46.1653 688.442 45.728H687.146V44.08H694.906V45.728H693.674C694.005 46.1547 694.17 46.6667 694.17 47.264C694.17 48.0427 693.893 48.6773 693.338 49.168C692.794 49.6587 692.037 49.904 691.066 49.904C690.074 49.904 689.306 49.6587 688.762 49.168C688.229 48.6773 687.962 48.0427 687.962 47.264ZM698.042 55.712H696.042V52.48H689.306V50.816H698.042V55.712ZM696.042 41.808H698.042V45.472H699.882V47.152H698.042V50.096H696.042V41.808ZM688.938 41.792H693.178V43.328H688.938V41.792ZM690.954 45.728C690.645 45.76 690.389 45.8827 690.186 46.096C689.973 46.3413 689.866 46.6667 689.866 47.072C689.866 47.4667 689.973 47.776 690.186 48C690.4 48.224 690.693 48.336 691.066 48.336C691.418 48.336 691.706 48.224 691.93 48C692.154 47.776 692.266 47.4667 692.266 47.072C692.266 46.6667 692.154 46.3413 691.93 46.096C691.706 45.8507 691.418 45.728 691.066 45.728H690.954ZM710.837 47.216C709.898 47.056 709.04 46.768 708.261 46.352C707.482 45.936 706.869 45.456 706.421 44.912C705.973 45.456 705.36 45.936 704.581 46.352C703.802 46.768 702.944 47.056 702.005 47.216L701.141 45.888C701.792 45.728 702.378 45.5413 702.901 45.328C703.434 45.104 703.888 44.8587 704.261 44.592C704.634 44.3253 704.917 44.048 705.109 43.76C705.312 43.472 705.413 43.1733 705.413 42.864V41.888H707.413V42.864C707.413 43.1733 707.509 43.472 707.701 43.76C707.904 44.048 708.186 44.3253 708.549 44.592C708.922 44.8587 709.37 45.104 709.893 45.328C710.426 45.5413 711.029 45.728 711.701 45.888L710.837 47.216ZM712.533 47.76V49.392H700.325V47.76H712.533ZM703.349 55.568C702.901 55.568 702.592 55.488 702.421 55.328C702.25 55.1787 702.165 54.88 702.165 54.432V50.128H704.149V51.408H708.709V50.128H710.693V55.568H703.349ZM704.149 53.664C704.149 53.7813 704.165 53.8613 704.197 53.904C704.24 53.936 704.32 53.952 704.437 53.952H708.709V52.928H704.149V53.664ZM713.632 47.36C713.632 45.6533 713.93 44.4053 714.528 43.616C715.125 42.816 716.016 42.416 717.2 42.416C718.362 42.416 719.242 42.816 719.84 43.616C720.437 44.4053 720.736 45.6533 720.736 47.36C720.736 49.056 720.437 50.2987 719.84 51.088C719.253 51.8773 718.373 52.272 717.2 52.272C716.016 52.272 715.125 51.8773 714.528 51.088C713.93 50.2987 713.632 49.056 713.632 47.36ZM715.584 47.36C715.584 48.4907 715.717 49.3067 715.984 49.808C716.25 50.2987 716.656 50.544 717.2 50.544C717.712 50.544 718.106 50.2987 718.384 49.808C718.672 49.3067 718.816 48.4907 718.816 47.36C718.816 46.2293 718.672 45.4133 718.384 44.912C718.106 44.4 717.712 44.144 717.2 44.144C716.656 44.144 716.25 44.4 715.984 44.912C715.717 45.4133 715.584 46.2293 715.584 47.36ZM722.544 41.808H724.544V55.568H722.544V41.808ZM728.186 51.984C727.717 51.984 727.392 51.904 727.21 51.744C727.029 51.584 726.938 51.248 726.938 50.736V42.64H733.482V51.984H728.186ZM731.482 44.272H728.922V50.064C728.922 50.1813 728.938 50.2613 728.97 50.304C729.013 50.336 729.093 50.352 729.21 50.352H731.482V44.272ZM735.562 41.808H737.562V55.568H735.562V41.808ZM744.613 44.272V45.76C744.613 46.1333 744.683 46.5227 744.821 46.928C744.971 47.3227 745.184 47.7227 745.461 48.128C745.749 48.5227 746.091 48.9173 746.485 49.312C746.891 49.696 747.349 50.064 747.861 50.416L746.613 51.792C745.963 51.3867 745.376 50.9013 744.853 50.336C744.341 49.7707 743.925 49.2 743.605 48.624C743.264 49.232 742.811 49.824 742.245 50.4C741.691 50.976 741.077 51.488 740.405 51.936L739.157 50.576C739.68 50.2133 740.155 49.8293 740.581 49.424C741.008 49.0187 741.365 48.6133 741.653 48.208C741.952 47.792 742.181 47.376 742.341 46.96C742.501 46.544 742.581 46.144 742.581 45.76V44.272H740.037V42.624H746.997V44.272H744.613ZM748.581 41.808H750.581V55.568H748.581V41.808ZM764.204 47.584C763.586 47.456 762.994 47.2747 762.428 47.04C761.863 46.8053 761.42 46.528 761.1 46.208C760.748 46.592 760.279 46.912 759.692 47.168C759.116 47.424 758.508 47.6213 757.868 47.76L757.196 46.4C757.932 46.208 758.54 45.9947 759.02 45.76C759.5 45.5253 759.804 45.312 759.932 45.12H757.628V43.616H764.396V45.12H762.172C762.332 45.2907 762.663 45.472 763.164 45.664C763.666 45.856 764.268 46.0213 764.972 46.16L764.204 47.584ZM763.196 43.2H758.828V41.712H763.196V43.2ZM762.076 47.088V48.16C762.738 48.16 763.33 48.128 763.852 48.064C764.386 48 764.908 47.8507 765.42 47.616V41.792H767.42V45.136H769.276V46.8H767.42V49.84H765.42V49.232C764.94 49.4453 764.418 49.5893 763.852 49.664C763.287 49.728 762.732 49.76 762.188 49.76H756.684V48.16H760.108V47.088H762.076ZM760.716 53.984C760.716 54.1013 760.732 54.176 760.764 54.208C760.807 54.2507 760.887 54.272 761.004 54.272H767.9V55.728H759.964C759.495 55.728 759.17 55.648 758.988 55.488C758.807 55.328 758.716 54.992 758.716 54.48V52.368H765.436V51.856H758.796V50.384H767.42V53.744H760.716V53.984ZM778.903 41.808H780.903V49.648H778.903V47.872H776.263C775.975 48.1707 775.607 48.4053 775.159 48.576C774.722 48.7467 774.183 48.832 773.543 48.832C772.903 48.832 772.354 48.752 771.895 48.592C771.447 48.4213 771.079 48.192 770.791 47.904C770.503 47.6053 770.295 47.2533 770.167 46.848C770.039 46.432 769.975 45.9787 769.975 45.488C769.975 45.008 770.039 44.56 770.167 44.144C770.295 43.728 770.503 43.3707 770.791 43.072C771.079 42.7733 771.447 42.5387 771.895 42.368C772.354 42.1973 772.903 42.112 773.543 42.112C774.183 42.112 774.722 42.1973 775.159 42.368C775.607 42.5387 775.975 42.7787 776.263 43.088L776.359 43.216H778.903V41.808ZM776.615 55.792C775.794 55.792 775.1 55.7173 774.535 55.568C773.97 55.4293 773.511 55.232 773.159 54.976C772.807 54.72 772.551 54.4107 772.391 54.048C772.231 53.696 772.151 53.3013 772.151 52.864C772.151 52.4373 772.231 52.048 772.391 51.696C772.551 51.3333 772.807 51.024 773.159 50.768C773.511 50.5013 773.97 50.2933 774.535 50.144C775.1 49.9947 775.794 49.92 776.615 49.92C777.426 49.92 778.114 49.9947 778.679 50.144C779.244 50.2827 779.703 50.4853 780.055 50.752C780.407 51.008 780.663 51.3173 780.823 51.68C780.983 52.0427 781.063 52.4373 781.063 52.864C781.063 53.3013 780.983 53.7013 780.823 54.064C780.663 54.4267 780.402 54.736 780.039 54.992C779.687 55.248 779.228 55.4453 778.663 55.584C778.098 55.7227 777.415 55.792 776.615 55.792ZM776.615 54.192C777.095 54.192 777.49 54.16 777.799 54.096C778.119 54.0427 778.37 53.9573 778.551 53.84C778.743 53.7227 778.876 53.584 778.951 53.424C779.026 53.264 779.063 53.0773 779.063 52.864C779.063 52.6613 779.026 52.4747 778.951 52.304C778.876 52.1333 778.743 51.9947 778.551 51.888C778.37 51.7707 778.119 51.68 777.799 51.616C777.49 51.552 777.095 51.52 776.615 51.52C776.114 51.52 775.703 51.552 775.383 51.616C775.074 51.68 774.823 51.7707 774.631 51.888C774.45 52.0053 774.322 52.1493 774.247 52.32C774.183 52.48 774.151 52.6613 774.151 52.864C774.151 53.0667 774.183 53.2533 774.247 53.424C774.322 53.584 774.45 53.7227 774.631 53.84C774.812 53.9467 775.063 54.032 775.383 54.096C775.703 54.16 776.114 54.192 776.615 54.192ZM775.159 45.488C775.159 44.9013 775.015 44.4693 774.727 44.192C774.45 43.9147 774.055 43.776 773.543 43.776C772.455 43.776 771.911 44.3467 771.911 45.488C771.911 46.6187 772.455 47.184 773.543 47.184C774.055 47.184 774.45 47.0453 774.727 46.768C775.015 46.4907 775.159 46.064 775.159 45.488ZM777.079 45.488C777.079 45.744 777.063 45.984 777.031 46.208H778.903V44.896H777.031C777.063 45.088 777.079 45.2853 777.079 45.488Z" fill="#191F28"/>
<circle cx="1120" cy="16" r="8" fill="white"/>
<path d="M1058.91 51.152H1054.78L1053.68 54H1051.47L1055.92 43.248H1057.78L1062.22 54H1060.02L1058.91 51.152ZM1057.5 47.456L1056.86 45.696H1056.83L1056.19 47.456L1055.44 49.472H1058.26L1057.5 47.456ZM1063.66 43.248H1065.77V54H1063.66V43.248ZM1082.47 49.36C1081.37 49.2107 1080.41 48.96 1079.59 48.608C1078.78 48.256 1078.17 47.856 1077.77 47.408C1077.35 47.856 1076.73 48.256 1075.9 48.608C1075.08 48.96 1074.13 49.2107 1073.07 49.36L1072.51 47.808C1073.15 47.68 1073.72 47.5307 1074.22 47.36C1074.73 47.1893 1075.17 47.0133 1075.53 46.832C1075.89 46.64 1076.17 46.448 1076.36 46.256C1076.56 46.064 1076.67 45.8773 1076.68 45.696H1073.31V44.112H1082.23V45.696H1078.84C1078.84 46.048 1079.22 46.4267 1079.98 46.832C1080.71 47.2267 1081.73 47.552 1083.03 47.808L1082.47 49.36ZM1080.23 43.392H1075.31V41.792H1080.23V43.392ZM1083.88 51.728H1078.76V55.568H1076.76V51.728H1071.67V50.08H1083.88V51.728ZM1088.55 46.304C1088.55 46.4213 1088.56 46.5013 1088.6 46.544C1088.64 46.576 1088.72 46.592 1088.84 46.592H1095.36V48.24H1091.76V49.232H1096.9V50.816H1084.69V49.232H1089.8V48.24H1087.8C1087.33 48.24 1087 48.16 1086.82 48C1086.64 47.84 1086.55 47.504 1086.55 46.992V44.256H1093.06V43.712H1086.56V42.048H1095.04V45.92H1088.55V46.304ZM1095.27 55.504H1087.8C1087.33 55.504 1087 55.424 1086.82 55.264C1086.64 55.104 1086.55 54.768 1086.55 54.256V51.584H1088.55V53.568C1088.55 53.6853 1088.56 53.7653 1088.6 53.808C1088.64 53.84 1088.72 53.856 1088.84 53.856H1095.27V55.504ZM1111.19 41.808H1113.19V48.976H1111.19V47.664H1108.86V46.016H1111.19V45.008H1109.08C1109.04 45.264 1108.96 45.5147 1108.84 45.76C1108.74 45.9947 1108.6 46.2187 1108.43 46.432C1108.26 46.6347 1108.05 46.8373 1107.8 47.04C1107.32 47.4347 1106.71 47.8187 1105.96 48.192C1105.23 48.5547 1104.31 48.944 1103.23 49.36L1102.38 47.776C1103.95 47.1787 1105.14 46.624 1105.95 46.112C1106.76 45.6 1107.16 45.024 1107.16 44.384V43.888H1102.86V42.256H1109.16V43.36H1111.19V41.808ZM1106.63 53.824C1106.63 53.9413 1106.65 54.016 1106.68 54.048C1106.73 54.0907 1106.81 54.112 1106.92 54.112H1113.67V55.728H1105.88C1105.41 55.728 1105.09 55.648 1104.91 55.488C1104.73 55.328 1104.63 54.992 1104.63 54.48V51.824H1111.21V51.088H1104.71V49.456H1113.19V53.36H1106.63V53.824ZM1115.83 42.528H1122.61V45.824C1122.61 46.1013 1122.6 46.3947 1122.58 46.704C1122.56 47.0133 1122.52 47.3227 1122.47 47.632C1122.42 47.9307 1122.35 48.2293 1122.26 48.528C1122.19 48.816 1122.1 49.0773 1121.99 49.312L1120.18 48.992C1120.34 48.544 1120.45 48.0907 1120.5 47.632C1120.57 47.1627 1120.6 46.736 1120.6 46.352V44.176H1115.83V42.528ZM1117.46 47.008H1119.46V50.928H1120.42C1121 50.928 1121.57 50.8907 1122.15 50.816C1122.74 50.7307 1123.27 50.5707 1123.75 50.336V41.792H1125.75V46.128H1127.59V47.824H1125.75V55.568H1123.75V51.968C1123.27 52.192 1122.73 52.352 1122.12 52.448C1121.52 52.5333 1120.96 52.576 1120.44 52.576H1114.95V50.928H1117.46V47.008Z" fill="#191F28"/>
</svg>
