<svg width="1136" height="56" viewBox="0 0 1136 56" fill="none" xmlns="http://www.w3.org/2000/svg">
<rect width="1136" height="32" rx="16" fill="#D9D9D9"/>
<rect width="751" height="32" rx="16" fill="#B50039"/>
<path d="M15.7801 51.008H11.3481L10.1801 54H8.42006L12.8041 43.248H14.3081L18.7241 54H16.9641L15.7801 51.008ZM15.2361 49.632L14.2121 46.992L13.5721 45.28H13.5401L12.9001 46.992L11.8761 49.632H15.2361ZM24.8402 53.312C24.4989 53.5787 24.1202 53.7867 23.7042 53.936C23.2882 54.0853 22.8402 54.16 22.3602 54.16C21.4642 54.16 20.8082 53.9467 20.3922 53.52C19.9869 53.0827 19.7842 52.384 19.7842 51.424V46.256H21.4322V51.072C21.4322 51.7227 21.5335 52.1813 21.7362 52.448C21.9495 52.704 22.2802 52.832 22.7282 52.832C23.0695 52.832 23.3949 52.7787 23.7042 52.672C24.0242 52.5547 24.3495 52.3893 24.6802 52.176V46.256H26.3282V54H25.0962L24.8402 53.312ZM30.4023 47.616V51.152C30.4023 51.7707 30.4876 52.2027 30.6583 52.448C30.829 52.6933 31.1596 52.816 31.6503 52.816C31.8956 52.816 32.141 52.7787 32.3863 52.704C32.6423 52.6293 32.8823 52.544 33.1063 52.448L33.4263 53.68C33.085 53.84 32.7223 53.9573 32.3383 54.032C31.9543 54.1173 31.5756 54.16 31.2023 54.16C30.733 54.16 30.3383 54.1013 30.0183 53.984C29.709 53.8667 29.4583 53.696 29.2663 53.472C29.085 53.2373 28.9516 52.9547 28.8663 52.624C28.7916 52.2933 28.7543 51.9093 28.7543 51.472V47.616H27.4903V46.256H28.7543V44.704L30.4023 44.4V46.256H33.1383V47.616H30.4023ZM34.1739 50.128C34.1739 48.72 34.4673 47.696 35.0539 47.056C35.6513 46.416 36.5793 46.096 37.8379 46.096C39.0966 46.096 40.0193 46.4213 40.6059 47.072C41.2033 47.7227 41.5019 48.7413 41.5019 50.128C41.5019 51.536 41.2033 52.56 40.6059 53.2C40.0193 53.84 39.0966 54.16 37.8379 54.16C36.5793 54.16 35.6513 53.84 35.0539 53.2C34.4673 52.56 34.1739 51.536 34.1739 50.128ZM35.8219 50.128C35.8219 51.0347 35.9766 51.712 36.2859 52.16C36.6059 52.5973 37.1233 52.816 37.8379 52.816C38.5526 52.816 39.0646 52.5973 39.3739 52.16C39.6833 51.712 39.8379 51.0347 39.8379 50.128C39.8379 49.2213 39.6833 48.5493 39.3739 48.112C39.0646 47.6747 38.5526 47.456 37.8379 47.456C37.1233 47.456 36.6059 47.6747 36.2859 48.112C35.9766 48.5493 35.8219 49.2213 35.8219 50.128ZM52.2091 52.784C53.2544 52.784 54.2517 52.5227 55.2011 52L55.6491 53.328C55.1584 53.6053 54.6091 53.8133 54.0011 53.952C53.4037 54.0907 52.8011 54.16 52.1931 54.16C50.4011 54.16 49.0997 53.6853 48.2891 52.736C47.4784 51.7867 47.0731 50.416 47.0731 48.624C47.0731 46.7253 47.4784 45.328 48.2891 44.432C49.0997 43.536 50.2997 43.088 51.8891 43.088C52.6997 43.088 53.4197 43.2213 54.0491 43.488C54.6891 43.7547 55.2064 44.1013 55.6011 44.528L54.6411 45.584C54.2997 45.2213 53.9051 44.9493 53.4571 44.768C53.0197 44.576 52.4971 44.48 51.8891 44.48C50.8331 44.48 50.0437 44.8107 49.5211 45.472C49.0091 46.1333 48.7531 47.184 48.7531 48.624C48.7531 50.032 49.0251 51.0773 49.5691 51.76C50.1131 52.4427 50.9931 52.784 52.2091 52.784ZM63.1603 54H61.9283L61.6883 53.36C61.3896 53.6053 61.0376 53.8027 60.6323 53.952C60.2376 54.0907 59.8003 54.16 59.3203 54.16C58.4563 54.16 57.8163 53.952 57.4003 53.536C56.9843 53.1093 56.7763 52.496 56.7763 51.696C56.7763 50.8853 57.0376 50.2827 57.5603 49.888C58.083 49.4933 58.9363 49.296 60.1203 49.296C60.3656 49.296 60.6003 49.3013 60.8243 49.312C61.0483 49.3227 61.2723 49.3387 61.4963 49.36V49.088C61.4963 48.48 61.3736 48.0533 61.1283 47.808C60.8936 47.5627 60.467 47.44 59.8483 47.44C59.507 47.44 59.139 47.4933 58.7443 47.6C58.3603 47.696 57.9656 47.8507 57.5603 48.064L57.0643 46.88C57.523 46.6347 57.9976 46.4427 58.4883 46.304C58.9896 46.1653 59.5123 46.096 60.0563 46.096C60.6323 46.096 61.1176 46.1493 61.5123 46.256C61.9176 46.3627 62.2376 46.544 62.4723 46.8C62.7176 47.0453 62.8936 47.3653 63.0003 47.76C63.107 48.1547 63.1603 48.64 63.1603 49.216V54ZM59.7203 52.832C59.9976 52.832 60.3016 52.768 60.6323 52.64C60.963 52.512 61.251 52.3467 61.4963 52.144V50.656C61.283 50.6347 61.059 50.6187 60.8243 50.608C60.5896 50.5867 60.3283 50.576 60.0403 50.576C59.4536 50.576 59.0376 50.6613 58.7923 50.832C58.5576 50.992 58.4403 51.2693 58.4403 51.664C58.4403 52.4427 58.867 52.832 59.7203 52.832ZM66.7527 42.704V51.92C66.7527 52.2827 66.8007 52.5173 66.8967 52.624C66.9927 52.72 67.1847 52.768 67.4727 52.768V54.112C67.3767 54.1333 67.2967 54.144 67.2327 54.144C67.1687 54.1547 67.0727 54.16 66.9447 54.16C66.326 54.16 65.862 53.9893 65.5527 53.648C65.254 53.296 65.1047 52.72 65.1047 51.92V42.896L66.7527 42.704ZM69.0141 46.256H70.6781V54H69.0141V46.256ZM69.0141 42.928H70.6781V44.672H69.0141V42.928ZM76.0122 52.832C76.6522 52.832 77.1269 52.6293 77.4362 52.224C77.7455 51.808 77.9002 51.1093 77.9002 50.128C77.9002 49.168 77.7402 48.48 77.4202 48.064C77.1109 47.648 76.6362 47.44 75.9962 47.44C75.6869 47.44 75.3935 47.4987 75.1162 47.616C74.8389 47.7227 74.5935 47.8773 74.3802 48.08V52.208C74.5935 52.4 74.8389 52.5547 75.1162 52.672C75.3935 52.7787 75.6922 52.832 76.0122 52.832ZM73.9802 54H72.7162V42.896L74.3802 42.704V46.8C74.6255 46.5867 74.9242 46.416 75.2762 46.288C75.6389 46.16 76.0442 46.096 76.4922 46.096C77.4522 46.096 78.2042 46.4267 78.7482 47.088C79.2922 47.7387 79.5642 48.752 79.5642 50.128C79.5642 51.5147 79.2762 52.5333 78.7002 53.184C78.1349 53.8347 77.3082 54.16 76.2202 54.16C75.3989 54.16 74.7215 53.9093 74.1882 53.408L73.9802 54ZM82.3743 46.256L82.5343 47.184C83.1956 46.4587 83.9796 46.096 84.8863 46.096C85.249 46.096 85.6063 46.1707 85.9583 46.32V47.744C85.777 47.6587 85.5903 47.5947 85.3983 47.552C85.217 47.4987 85.0196 47.472 84.8063 47.472C84.4223 47.472 84.049 47.5627 83.6863 47.744C83.3236 47.9253 83.0143 48.1547 82.7583 48.432V54H81.0943V46.256H82.3743ZM92.7541 54H91.5221L91.2821 53.36C90.9834 53.6053 90.6314 53.8027 90.2261 53.952C89.8314 54.0907 89.3941 54.16 88.9141 54.16C88.0501 54.16 87.4101 53.952 86.9941 53.536C86.5781 53.1093 86.3701 52.496 86.3701 51.696C86.3701 50.8853 86.6314 50.2827 87.1541 49.888C87.6767 49.4933 88.5301 49.296 89.7141 49.296C89.9594 49.296 90.1941 49.3013 90.4181 49.312C90.6421 49.3227 90.8661 49.3387 91.0901 49.36V49.088C91.0901 48.48 90.9674 48.0533 90.7221 47.808C90.4874 47.5627 90.0607 47.44 89.4421 47.44C89.1007 47.44 88.7327 47.4933 88.3381 47.6C87.9541 47.696 87.5594 47.8507 87.1541 48.064L86.6581 46.88C87.1167 46.6347 87.5914 46.4427 88.0821 46.304C88.5834 46.1653 89.1061 46.096 89.6501 46.096C90.2261 46.096 90.7114 46.1493 91.1061 46.256C91.5114 46.3627 91.8314 46.544 92.0661 46.8C92.3114 47.0453 92.4874 47.3653 92.5941 47.76C92.7007 48.1547 92.7541 48.64 92.7541 49.216V54ZM89.3141 52.832C89.5914 52.832 89.8954 52.768 90.2261 52.64C90.5567 52.512 90.8447 52.3467 91.0901 52.144V50.656C90.8767 50.6347 90.6527 50.6187 90.4181 50.608C90.1834 50.5867 89.9221 50.576 89.6341 50.576C89.0474 50.576 88.6314 50.6613 88.3861 50.832C88.1514 50.992 88.0341 51.2693 88.0341 51.664C88.0341 52.4427 88.4607 52.832 89.3141 52.832ZM96.7304 47.616V51.152C96.7304 51.7707 96.8158 52.2027 96.9864 52.448C97.1571 52.6933 97.4878 52.816 97.9784 52.816C98.2238 52.816 98.4691 52.7787 98.7144 52.704C98.9704 52.6293 99.2104 52.544 99.4344 52.448L99.7544 53.68C99.4131 53.84 99.0504 53.9573 98.6664 54.032C98.2824 54.1173 97.9038 54.16 97.5304 54.16C97.0611 54.16 96.6664 54.1013 96.3464 53.984C96.0371 53.8667 95.7864 53.696 95.5944 53.472C95.4131 53.2373 95.2798 52.9547 95.1944 52.624C95.1198 52.2933 95.0824 51.9093 95.0824 51.472V47.616H93.8184V46.256H95.0824V44.704L96.7304 44.4V46.256H99.4664V47.616H96.7304ZM101.108 46.256H102.772V54H101.108V46.256ZM101.108 42.928H102.772V44.672H101.108V42.928ZM104.474 50.128C104.474 48.72 104.767 47.696 105.354 47.056C105.951 46.416 106.879 46.096 108.138 46.096C109.397 46.096 110.319 46.4213 110.906 47.072C111.503 47.7227 111.802 48.7413 111.802 50.128C111.802 51.536 111.503 52.56 110.906 53.2C110.319 53.84 109.397 54.16 108.138 54.16C106.879 54.16 105.951 53.84 105.354 53.2C104.767 52.56 104.474 51.536 104.474 50.128ZM106.122 50.128C106.122 51.0347 106.277 51.712 106.586 52.16C106.906 52.5973 107.423 52.816 108.138 52.816C108.853 52.816 109.365 52.5973 109.674 52.16C109.983 51.712 110.138 51.0347 110.138 50.128C110.138 49.2213 109.983 48.5493 109.674 48.112C109.365 47.6747 108.853 47.456 108.138 47.456C107.423 47.456 106.906 47.6747 106.586 48.112C106.277 48.5493 106.122 49.2213 106.122 50.128ZM114.817 46.96C115.158 46.6933 115.537 46.4853 115.953 46.336C116.369 46.176 116.817 46.096 117.297 46.096C118.203 46.096 118.859 46.3147 119.265 46.752C119.681 47.1893 119.889 47.888 119.889 48.848V54H118.225V49.2C118.225 48.56 118.113 48.1067 117.889 47.84C117.675 47.5733 117.355 47.44 116.929 47.44C116.587 47.44 116.257 47.4987 115.937 47.616C115.627 47.7227 115.313 47.8827 114.993 48.096V54H113.329V46.256H114.577L114.817 46.96Z" fill="#191F28"/>
<path d="M377.706 48.304C377.375 48.976 376.922 49.632 376.346 50.272C375.77 50.9013 375.135 51.4453 374.442 51.904L373.45 50.768C373.972 50.3947 374.442 50.0053 374.858 49.6C375.284 49.184 375.647 48.7627 375.946 48.336C376.244 47.8987 376.474 47.4667 376.634 47.04C376.804 46.6027 376.89 46.176 376.89 45.76V43.984H374.25V42.688H381.002V43.984H378.522V45.76C378.522 46.1653 378.596 46.5867 378.746 47.024C378.906 47.4507 379.124 47.8773 379.402 48.304C379.69 48.72 380.036 49.1307 380.442 49.536C380.847 49.9307 381.3 50.288 381.802 50.608L380.81 51.744C380.5 51.552 380.191 51.3227 379.882 51.056C379.572 50.7893 379.279 50.5067 379.002 50.208C378.735 49.8987 378.484 49.584 378.25 49.264C378.026 48.9333 377.844 48.6133 377.706 48.304ZM382.586 41.872H384.186V46.32H386.122V47.664H384.186V55.44H382.586V41.872ZM396.631 43.456H390.231V45.376C390.231 45.472 390.247 45.5307 390.279 45.552C390.311 45.5733 390.375 45.584 390.471 45.584H396.711V46.88H393.447V48.32H398.679V49.6H386.663V48.32H391.879V46.88H389.511C389.201 46.88 388.977 46.7947 388.839 46.624C388.7 46.4533 388.631 46.2293 388.631 45.952V42.144H396.631V43.456ZM392.679 55.664C391.879 55.664 391.201 55.6 390.647 55.472C390.092 55.3547 389.639 55.184 389.287 54.96C388.945 54.736 388.695 54.4587 388.535 54.128C388.385 53.808 388.311 53.4453 388.311 53.04C388.311 52.6347 388.385 52.272 388.535 51.952C388.695 51.6213 388.945 51.344 389.287 51.12C389.639 50.896 390.092 50.7253 390.647 50.608C391.201 50.48 391.879 50.416 392.679 50.416C393.479 50.416 394.151 50.48 394.695 50.608C395.249 50.7253 395.697 50.896 396.039 51.12C396.391 51.344 396.641 51.6213 396.791 51.952C396.951 52.272 397.031 52.6347 397.031 53.04C397.031 53.4453 396.951 53.808 396.791 54.128C396.641 54.4587 396.391 54.736 396.039 54.96C395.697 55.184 395.249 55.3547 394.695 55.472C394.151 55.6 393.479 55.664 392.679 55.664ZM392.679 54.416C393.671 54.416 394.375 54.2933 394.791 54.048C395.207 53.8133 395.415 53.4773 395.415 53.04C395.415 52.6133 395.207 52.2773 394.791 52.032C394.375 51.7867 393.671 51.664 392.679 51.664C391.687 51.664 390.977 51.7867 390.551 52.032C390.135 52.2773 389.927 52.6133 389.927 53.04C389.927 53.4773 390.135 53.8133 390.551 54.048C390.977 54.2933 391.687 54.416 392.679 54.416ZM406.496 50.512H408.096V53.808C408.096 53.9253 408.107 53.9947 408.128 54.016C408.16 54.048 408.23 54.064 408.336 54.064H415.104V55.36H407.408C406.8 55.36 406.496 55.0613 406.496 54.464V50.512ZM414.784 51.328H413.168V41.872H414.784V51.328ZM404.256 45.632C404.256 45.152 404.32 44.6987 404.448 44.272C404.576 43.8453 404.779 43.4773 405.056 43.168C405.334 42.8587 405.696 42.6133 406.144 42.432C406.592 42.2507 407.136 42.16 407.776 42.16C408.416 42.16 408.955 42.2507 409.392 42.432C409.84 42.6133 410.203 42.8587 410.48 43.168C410.758 43.4773 410.96 43.8453 411.088 44.272C411.216 44.6987 411.28 45.152 411.28 45.632C411.28 46.112 411.216 46.5653 411.088 46.992C410.96 47.4187 410.758 47.7867 410.48 48.096C410.203 48.4053 409.84 48.6507 409.392 48.832C408.955 49.0133 408.416 49.104 407.776 49.104C407.136 49.104 406.592 49.0133 406.144 48.832C405.696 48.6507 405.334 48.4053 405.056 48.096C404.779 47.7867 404.576 47.4187 404.448 46.992C404.32 46.5653 404.256 46.112 404.256 45.632ZM409.76 45.632C409.76 44.8853 409.584 44.3413 409.232 44C408.891 43.648 408.406 43.472 407.776 43.472C407.136 43.472 406.646 43.648 406.304 44C405.963 44.3413 405.792 44.8853 405.792 45.632C405.792 46.3787 405.963 46.928 406.304 47.28C406.646 47.6213 407.136 47.792 407.776 47.792C408.406 47.792 408.891 47.6213 409.232 47.28C409.584 46.928 409.76 46.3787 409.76 45.632ZM421.053 46.352C420.755 46.9493 420.312 47.5093 419.725 48.032C419.139 48.544 418.493 48.9867 417.789 49.36L417.005 48.24C417.496 47.952 417.944 47.6373 418.349 47.296C418.755 46.9547 419.096 46.6027 419.373 46.24C419.651 45.8667 419.864 45.488 420.013 45.104C420.173 44.7093 420.253 44.3253 420.253 43.952V42.256H421.869V43.952C421.869 44.3253 421.944 44.6987 422.093 45.072C422.243 45.4453 422.451 45.8133 422.717 46.176C422.995 46.528 423.325 46.8693 423.709 47.2C424.104 47.52 424.547 47.8133 425.037 48.08L424.253 49.2C423.923 49.04 423.597 48.8533 423.277 48.64C422.957 48.4267 422.653 48.1973 422.365 47.952C422.088 47.696 421.837 47.4347 421.613 47.168C421.389 46.9013 421.203 46.6293 421.053 46.352ZM427.709 55.6H426.109V51.76H419.261V50.448H427.709V55.6ZM427.709 49.536H426.093V41.872H427.709V49.536Z" fill="#191F28"/>
<circle cx="734.666" cy="16" r="8" fill="white"/>
<path d="M689.314 41.84H693.362V43.12H689.314V41.84ZM698.13 55.6H696.53V52.24H689.682V50.928H698.13V55.6ZM700.066 47.072H698.13V50.016H696.53V41.872H698.13V45.792H700.066V47.072ZM691.346 49.776C690.386 49.776 689.645 49.5413 689.122 49.072C688.6 48.6027 688.338 47.936 688.338 47.072C688.338 46.7093 688.402 46.3787 688.53 46.08C688.658 45.7707 688.829 45.5413 689.042 45.392H687.522V44.096H695.09V45.392H693.65C693.864 45.5413 694.034 45.7707 694.162 46.08C694.29 46.3787 694.354 46.7093 694.354 47.072C694.354 47.936 694.088 48.6027 693.554 49.072C693.021 49.5413 692.285 49.776 691.346 49.776ZM691.346 45.376C690.877 45.376 690.509 45.5147 690.242 45.792C689.976 46.0587 689.842 46.4587 689.842 46.992C689.842 47.5147 689.976 47.904 690.242 48.16C690.509 48.416 690.877 48.544 691.346 48.544C691.816 48.544 692.184 48.416 692.45 48.16C692.717 47.904 692.85 47.5147 692.85 46.992C692.85 46.4587 692.717 46.0587 692.45 45.792C692.184 45.5147 691.816 45.376 691.346 45.376ZM706.607 44.608C706.383 44.8853 706.106 45.1573 705.775 45.424C705.455 45.68 705.103 45.92 704.719 46.144C704.335 46.3573 703.925 46.5493 703.487 46.72C703.05 46.88 702.602 47.0027 702.143 47.088L701.487 46.064C702.127 45.904 702.714 45.7067 703.247 45.472C703.781 45.2373 704.234 44.9813 704.607 44.704C704.991 44.416 705.285 44.112 705.487 43.792C705.701 43.472 705.807 43.1413 705.807 42.8V41.952H707.407V42.8C707.407 43.1413 707.509 43.472 707.711 43.792C707.925 44.112 708.218 44.416 708.591 44.704C708.975 44.9813 709.434 45.2373 709.967 45.472C710.501 45.7067 711.087 45.904 711.727 46.064L711.071 47.088C710.613 47.0027 710.165 46.88 709.727 46.72C709.29 46.5493 708.879 46.3573 708.495 46.144C708.111 45.92 707.754 45.68 707.423 45.424C707.103 45.1573 706.831 44.8853 706.607 44.608ZM712.623 48V49.28H700.607V48H712.623ZM710.815 55.44H703.375C702.735 55.44 702.415 55.12 702.415 54.48V50.096H703.999V51.616H709.231V50.096H710.815V55.44ZM709.231 54.16V52.88H703.999V53.888C703.999 53.9947 704.015 54.064 704.047 54.096C704.079 54.1387 704.149 54.16 704.255 54.16H709.231ZM722.844 41.872H724.444V55.44H722.844V41.872ZM717.468 52.144C715.239 52.144 714.124 50.5333 714.124 47.312C714.124 44.0907 715.239 42.48 717.468 42.48C719.698 42.48 720.812 44.0907 720.812 47.312C720.812 50.5333 719.698 52.144 717.468 52.144ZM717.468 43.872C716.85 43.872 716.396 44.1493 716.108 44.704C715.82 45.248 715.676 46.1173 715.676 47.312C715.676 48.5067 715.82 49.3813 716.108 49.936C716.396 50.48 716.85 50.752 717.468 50.752C718.087 50.752 718.54 50.48 718.828 49.936C719.116 49.3813 719.26 48.5067 719.26 47.312C719.26 46.1173 719.116 45.248 718.828 44.704C718.54 44.1493 718.087 43.872 717.468 43.872ZM735.769 41.872H737.369V55.44H735.769V41.872ZM727.193 42.704H733.545V51.856H728.201C727.529 51.856 727.193 51.52 727.193 50.848V42.704ZM731.945 50.576V43.984H728.793V50.368C728.793 50.4533 728.809 50.512 728.841 50.544C728.873 50.5653 728.937 50.576 729.033 50.576H731.945ZM743.59 48.288C743.26 48.96 742.806 49.616 742.23 50.256C741.654 50.8853 741.02 51.4293 740.326 51.888L739.334 50.752C739.857 50.3787 740.326 49.9893 740.742 49.584C741.169 49.168 741.532 48.7467 741.83 48.32C742.129 47.8827 742.358 47.4507 742.518 47.024C742.689 46.5867 742.774 46.16 742.774 45.744V43.984H740.134V42.688H746.886V43.984H744.406V45.744C744.406 46.1493 744.481 46.5653 744.63 46.992C744.78 47.4187 744.993 47.84 745.27 48.256C745.548 48.672 745.878 49.0773 746.262 49.472C746.657 49.8667 747.094 50.24 747.574 50.592L746.582 51.728C746.262 51.504 745.948 51.2587 745.638 50.992C745.34 50.7147 745.062 50.4267 744.806 50.128C744.55 49.8293 744.316 49.5253 744.102 49.216C743.9 48.9067 743.729 48.5973 743.59 48.288ZM748.694 41.872H750.294V55.44H748.694V41.872ZM764 47.52C763.328 47.3707 762.714 47.1573 762.16 46.88C761.616 46.6027 761.2 46.2773 760.912 45.904C760.602 46.32 760.16 46.688 759.584 47.008C759.008 47.3173 758.378 47.552 757.696 47.712L757.184 46.64C758.048 46.4267 758.725 46.1547 759.216 45.824C759.706 45.4933 759.978 45.152 760.032 44.8H757.552V43.648H764.112V44.8H761.648C761.722 45.1307 762.026 45.44 762.56 45.728C763.104 46.0053 763.776 46.2347 764.576 46.416L764 47.52ZM762.912 42.912H758.752V41.776H762.912V42.912ZM761.696 47.04V48.288H761.936C762.608 48.288 763.221 48.2507 763.776 48.176C764.341 48.0907 764.896 47.9093 765.44 47.632V41.872H767.04V45.296H768.992V46.608H767.04V49.712H765.44V48.848C764.96 49.1253 764.41 49.312 763.792 49.408C763.184 49.4933 762.586 49.536 762 49.536H756.592V48.288H760.128V47.04H761.696ZM758.624 52.368H765.44V51.648H758.704V50.432H767.04V53.536H760.224V54.16C760.224 54.256 760.234 54.3147 760.256 54.336C760.277 54.3573 760.33 54.368 760.416 54.368H767.52V55.6H759.504C759.173 55.6 758.944 55.5253 758.816 55.376C758.688 55.2267 758.624 55.008 758.624 54.72V52.368ZM769.821 45.44C769.821 44.9707 769.885 44.5387 770.013 44.144C770.141 43.7387 770.338 43.392 770.605 43.104C770.882 42.8053 771.239 42.576 771.677 42.416C772.114 42.2453 772.642 42.16 773.261 42.16C773.965 42.16 774.551 42.272 775.021 42.496C775.49 42.7093 775.853 43.0027 776.109 43.376H778.829V41.872H780.429V49.648H778.829V47.824H775.837C775.559 48.1013 775.213 48.32 774.797 48.48C774.381 48.64 773.869 48.72 773.261 48.72C772.642 48.72 772.114 48.64 771.677 48.48C771.239 48.3093 770.882 48.08 770.605 47.792C770.338 47.4933 770.141 47.1467 770.013 46.752C769.885 46.3467 769.821 45.9093 769.821 45.44ZM776.285 55.664C775.506 55.664 774.845 55.5947 774.301 55.456C773.757 55.3173 773.309 55.12 772.957 54.864C772.615 54.608 772.365 54.3093 772.205 53.968C772.055 53.616 771.981 53.232 771.981 52.816C771.981 52.4 772.055 52.0213 772.205 51.68C772.365 51.328 772.615 51.024 772.957 50.768C773.309 50.512 773.757 50.3147 774.301 50.176C774.845 50.0373 775.506 49.968 776.285 49.968C777.063 49.968 777.725 50.0373 778.269 50.176C778.813 50.3147 779.255 50.512 779.597 50.768C779.938 51.024 780.189 51.328 780.349 51.68C780.509 52.0213 780.589 52.4 780.589 52.816C780.589 53.232 780.509 53.616 780.349 53.968C780.189 54.3093 779.938 54.608 779.597 54.864C779.255 55.12 778.813 55.3173 778.269 55.456C777.725 55.5947 777.063 55.664 776.285 55.664ZM776.285 54.4C776.807 54.4 777.239 54.3627 777.581 54.288C777.933 54.2133 778.21 54.1067 778.413 53.968C778.626 53.8293 778.775 53.664 778.861 53.472C778.946 53.2693 778.989 53.0507 778.989 52.816C778.989 52.5813 778.946 52.368 778.861 52.176C778.775 51.9733 778.626 51.8027 778.413 51.664C778.21 51.5253 777.933 51.4187 777.581 51.344C777.239 51.2693 776.807 51.232 776.285 51.232C775.762 51.232 775.325 51.2693 774.973 51.344C774.631 51.4187 774.354 51.5253 774.141 51.664C773.938 51.8027 773.794 51.9733 773.709 52.176C773.623 52.368 773.581 52.5813 773.581 52.816C773.581 53.0507 773.623 53.2693 773.709 53.472C773.794 53.664 773.938 53.8293 774.141 53.968C774.354 54.1067 774.631 54.2133 774.973 54.288C775.325 54.3627 775.762 54.4 776.285 54.4ZM775.165 45.44C775.165 44.768 774.999 44.272 774.669 43.952C774.338 43.632 773.869 43.472 773.261 43.472C772.642 43.472 772.167 43.632 771.837 43.952C771.517 44.272 771.357 44.768 771.357 45.44C771.357 46.112 771.517 46.608 771.837 46.928C772.167 47.248 772.642 47.408 773.261 47.408C773.869 47.408 774.338 47.248 774.669 46.928C774.999 46.608 775.165 46.112 775.165 45.44ZM776.669 45.44C776.669 45.8027 776.626 46.1547 776.541 46.496H778.829V44.704H776.605C776.647 44.9173 776.669 45.1627 776.669 45.44Z" fill="#191F28"/>
<circle cx="1120" cy="16" r="8" fill="white"/>
<path d="M1059.91 51.008H1055.48L1054.31 54H1052.55L1056.93 43.248H1058.44L1062.85 54H1061.09L1059.91 51.008ZM1059.37 49.632L1058.34 46.992L1057.7 45.28H1057.67L1057.03 46.992L1056.01 49.632H1059.37ZM1064.33 43.248H1066.01V54H1064.33V43.248ZM1078.02 47.152C1077.85 47.376 1077.61 47.6 1077.3 47.824C1077 48.0373 1076.65 48.24 1076.24 48.432C1075.84 48.6133 1075.39 48.7787 1074.9 48.928C1074.41 49.0773 1073.9 49.1893 1073.36 49.264L1072.93 48.016C1073.56 47.888 1074.13 47.7333 1074.64 47.552C1075.16 47.3707 1075.61 47.1787 1075.97 46.976C1076.34 46.7627 1076.63 46.5493 1076.83 46.336C1077.04 46.112 1077.14 45.8933 1077.14 45.68V45.504H1073.67V44.256H1082.39V45.504H1078.9V45.68C1078.9 45.8933 1079 46.112 1079.2 46.336C1079.4 46.5493 1079.69 46.7627 1080.05 46.976C1080.42 47.1787 1080.87 47.3707 1081.38 47.552C1081.9 47.7333 1082.48 47.888 1083.11 48.016L1082.67 49.264C1082.14 49.1893 1081.63 49.0773 1081.14 48.928C1080.65 48.7787 1080.2 48.6133 1079.79 48.432C1079.39 48.24 1079.03 48.0373 1078.72 47.824C1078.42 47.6 1078.19 47.376 1078.02 47.152ZM1080.39 43.184H1075.67V41.856H1080.39V43.184ZM1084.03 51.456H1078.82V55.44H1077.22V51.456H1072.02V50.144H1084.03V51.456ZM1094.97 45.616H1088.49V46.512C1088.49 46.6187 1088.51 46.688 1088.54 46.72C1088.59 46.7413 1088.65 46.752 1088.73 46.752H1095.13V48H1091.73V49.312H1096.96V50.56H1084.94V49.312H1090.16V48H1087.74C1087.19 48 1086.91 47.7227 1086.91 47.168V44.384H1093.39V43.344H1086.96V42.112H1094.97V45.616ZM1095.45 55.36H1087.74C1087.08 55.36 1086.75 55.0293 1086.75 54.368V51.6H1088.35V53.824C1088.35 53.9307 1088.36 53.9947 1088.38 54.016C1088.4 54.048 1088.47 54.064 1088.57 54.064H1095.45V55.36ZM1113.06 48.656H1111.45V47.632H1108.95V46.304H1111.45V44.912H1109.05C1108.95 45.3707 1108.77 45.7867 1108.49 46.16C1108.21 46.5227 1107.84 46.8747 1107.37 47.216C1106.9 47.5467 1106.32 47.8773 1105.64 48.208C1104.97 48.528 1104.18 48.864 1103.27 49.216L1102.62 47.952C1103.39 47.6427 1104.09 47.3493 1104.7 47.072C1105.3 46.7947 1105.82 46.512 1106.23 46.224C1106.66 45.936 1106.98 45.6427 1107.19 45.344C1107.42 45.0347 1107.53 44.6987 1107.53 44.336V43.632H1103.02V42.336H1109.13V43.584H1111.45V41.872H1113.06V48.656ZM1104.81 51.92H1111.46V50.8H1104.89V49.568H1113.06V53.104H1106.41V54.144C1106.41 54.2293 1106.42 54.2827 1106.44 54.304C1106.46 54.336 1106.51 54.352 1106.6 54.352H1113.54V55.6H1105.69C1105.36 55.6 1105.13 55.5253 1105 55.376C1104.87 55.2267 1104.81 55.008 1104.81 54.72V51.92ZM1115.89 42.608H1122.49V45.904C1122.49 46.1813 1122.47 46.4747 1122.45 46.784C1122.43 47.0827 1122.4 47.3813 1122.36 47.68C1122.31 47.9787 1122.26 48.2667 1122.18 48.544C1122.12 48.8107 1122.04 49.056 1121.94 49.28L1120.52 49.04C1120.66 48.6453 1120.75 48.2133 1120.81 47.744C1120.86 47.2747 1120.89 46.8373 1120.89 46.432V43.904H1115.89V42.608ZM1117.64 46.992H1119.24V51.136H1120.39C1121 51.1253 1121.61 51.0773 1122.23 50.992C1122.85 50.896 1123.41 50.7093 1123.93 50.432V41.872H1125.53V46.256H1127.46V47.6H1125.53V55.44H1123.93V51.68C1123.68 51.8187 1123.41 51.936 1123.13 52.032C1122.84 52.128 1122.54 52.208 1122.23 52.272C1121.93 52.336 1121.62 52.384 1121.3 52.416C1120.99 52.4373 1120.69 52.448 1120.41 52.448H1115.01V51.136H1117.64V46.992Z" fill="#B0B8C1"/>
</svg>
