<svg width="33" height="32" viewBox="0 0 33 32" fill="none" xmlns="http://www.w3.org/2000/svg">
<g id="vuesax/linear/video-octagon">
<g id="video-octagon">
<path id="Vector" d="M28.6065 11.44V20.56C28.6065 22.0533 27.8066 23.44 26.5132 24.2L18.5932 28.7734C17.2999 29.52 15.6999 29.52 14.3932 28.7734L6.47323 24.2C5.17989 23.4534 4.37988 22.0667 4.37988 20.56V11.44C4.37988 9.9467 5.17989 8.55998 6.47323 7.79998L14.3932 3.22666C15.6866 2.47999 17.2866 2.47999 18.5932 3.22666L26.5132 7.79998C27.8066 8.55998 28.6065 9.93337 28.6065 11.44Z" stroke="#525252" stroke-width="2.25" stroke-linecap="round" stroke-linejoin="round"/>
<path id="Vector_2" d="M13.5 16V14.4C13.5 12.3467 14.9534 11.5067 16.7267 12.5334L18.1133 13.3333L19.5 14.1333C21.2733 15.16 21.2733 16.84 19.5 17.8667L18.1133 18.6667L16.7267 19.4666C14.9534 20.4933 13.5 19.6534 13.5 17.6V16Z" stroke="#525252" stroke-width="2.25" stroke-miterlimit="10" stroke-linecap="round" stroke-linejoin="round"/>
</g>
</g>
</svg>
