<svg width="32" height="32" viewBox="0 0 32 32" fill="none" xmlns="http://www.w3.org/2000/svg">
<g id="vuesax/linear/video-octagon">
<g id="video-octagon">
<path id="Vector" d="M28.1065 11.44V20.56C28.1065 22.0533 27.3066 23.44 26.0132 24.2L18.0932 28.7734C16.7999 29.52 15.1999 29.52 13.8932 28.7734L5.97323 24.2C4.67989 23.4534 3.87988 22.0667 3.87988 20.56V11.44C3.87988 9.9467 4.67989 8.55998 5.97323 7.79998L13.8932 3.22666C15.1866 2.47999 16.7866 2.47999 18.0932 3.22666L26.0132 7.79998C27.3066 8.55998 28.1065 9.93337 28.1065 11.44Z" stroke="white" stroke-width="2.25" stroke-linecap="round" stroke-linejoin="round"/>
<path id="Vector_2" d="M13 16V14.4C13 12.3467 14.4534 11.5067 16.2267 12.5334L17.6133 13.3333L19 14.1333C20.7733 15.16 20.7733 16.84 19 17.8667L17.6133 18.6667L16.2267 19.4666C14.4534 20.4933 13 19.6534 13 17.6V16Z" stroke="white" stroke-width="2.25" stroke-miterlimit="10" stroke-linecap="round" stroke-linejoin="round"/>
</g>
</g>
</svg>
