<svg width="33" height="32" viewBox="0 0 33 32" fill="none" xmlns="http://www.w3.org/2000/svg">
<path d="M17.207 27.2268H8.78033C4.56699 27.2268 3.16699 24.4268 3.16699 21.6134V10.3868C3.16699 6.17344 4.56699 4.77344 8.78033 4.77344H17.207C21.4203 4.77344 22.8203 6.17344 22.8203 10.3868V21.6134C22.8203 25.8268 21.407 27.2268 17.207 27.2268Z" stroke="#525252" stroke-width="2.25" stroke-linecap="round" stroke-linejoin="round"/>
<path d="M26.526 22.7999L22.8193 20.1999V11.7866L26.526 9.18657C28.3393 7.9199 29.8327 8.69323 29.8327 10.9199V21.0799C29.8327 23.3066 28.3393 24.0799 26.526 22.7999Z" stroke="#525252" stroke-width="2.25" stroke-linecap="round" stroke-linejoin="round"/>
<path d="M15.833 14.6667C16.9376 14.6667 17.833 13.7712 17.833 12.6667C17.833 11.5621 16.9376 10.6667 15.833 10.6667C14.7284 10.6667 13.833 11.5621 13.833 12.6667C13.833 13.7712 14.7284 14.6667 15.833 14.6667Z" stroke="#525252" stroke-width="2.25" stroke-linecap="round" stroke-linejoin="round"/>
</svg>
