<svg width="32" height="32" viewBox="0 0 32 32" fill="none" xmlns="http://www.w3.org/2000/svg">
<g id="vuesax/linear/video">
<g id="video">
<path id="Vector" d="M16.707 27.2268H8.28033C4.06699 27.2268 2.66699 24.4268 2.66699 21.6134V10.3868C2.66699 6.17344 4.06699 4.77344 8.28033 4.77344H16.707C20.9203 4.77344 22.3203 6.17344 22.3203 10.3868V21.6134C22.3203 25.8268 20.907 27.2268 16.707 27.2268Z" stroke="white" stroke-width="2.25" stroke-linecap="round" stroke-linejoin="round"/>
<path id="Vector_2" d="M26.026 22.7999L22.3193 20.1999V11.7866L26.026 9.18657C27.8393 7.9199 29.3327 8.69323 29.3327 10.9199V21.0799C29.3327 23.3066 27.8393 24.0799 26.026 22.7999Z" stroke="white" stroke-width="2.25" stroke-linecap="round" stroke-linejoin="round"/>
<path id="Vector_3" d="M15.333 14.6667C16.4376 14.6667 17.333 13.7712 17.333 12.6667C17.333 11.5621 16.4376 10.6667 15.333 10.6667C14.2284 10.6667 13.333 11.5621 13.333 12.6667C13.333 13.7712 14.2284 14.6667 15.333 14.6667Z" stroke="white" stroke-width="2.25" stroke-linecap="round" stroke-linejoin="round"/>
</g>
</g>
</svg>
